<?xml version="1.0" encoding="UTF-8"?>
<svg width="74px" height="76px" viewBox="0 0 74 76" version="1.1" xmlns="http://www.w3.org/2000/svg" xmlns:xlink="http://www.w3.org/1999/xlink">
    <!-- Generator: Sketch 61.2 (89653) - https://sketch.com -->
    <title>a</title>
    <desc>Created with Sketch.</desc>
    <g id="march-2020-iter" stroke="none" stroke-width="1" fill="none" fill-rule="evenodd">
        <path d="M21.6888889,75.7333333 C24.1540741,75.7333333 26.2637037,75.5318519 28.0177778,75.1288889 C29.7718519,74.7259259 31.36,74.1688889 32.7822222,73.4577778 C34.2044444,72.7466667 35.5081481,71.8814815 36.6933333,70.8622222 C37.8785185,69.842963 39.1348148,68.717037 40.4622222,67.4844444 C40.6518519,68.242963 40.96,69.0251852 41.3866667,69.8311111 C41.8133333,70.637037 42.3111111,71.3837037 42.88,72.0711111 C43.4488889,72.7585185 44.0888889,73.3155556 44.8,73.7422222 C45.5111111,74.1688889 46.2459259,74.3822222 47.0044444,74.3822222 L47.0044444,74.3822222 L73.1733333,74.3822222 C69.8074074,73.0074074 67.2,71.277037 65.3511111,69.1911111 C63.5022222,67.1051852 62.5777778,64.5688889 62.5777778,61.5822222 L62.5777778,61.5822222 L62.5777778,19.9111111 C62.5777778,16.877037 61.997037,14.1392593 60.8355556,11.6977778 C59.6740741,9.2562963 57.8725926,7.17037037 55.4311111,5.44 C52.9896296,3.70962963 49.8725926,2.37037037 46.08,1.42222222 C42.2874074,0.474074074 37.7837037,0 32.5688889,0 C28.3496296,0 24.4266667,0.474074074 20.8,1.42222222 C17.1733333,2.37037037 13.9496296,3.70962963 11.1288889,5.44 C8.30814815,7.17037037 5.94962963,9.28 4.05333333,11.7688889 C2.15703704,14.2577778 0.82962963,17.0192593 0.0711111111,20.0533333 L0.0711111111,20.0533333 L18.6311111,20.0533333 C18.9155556,18.4414815 19.3659259,16.9007407 19.9822222,15.4311111 C20.5985185,13.9614815 21.4044444,12.6577778 22.4,11.52 C23.3955556,10.3822222 24.5807407,9.48148148 25.9555556,8.81777778 C27.3303704,8.15407407 28.8948148,7.82222222 30.6488889,7.82222222 C32.1185185,7.82222222 33.4577778,8.04740741 34.6666667,8.49777778 C35.8755556,8.94814815 36.9066667,9.68296296 37.76,10.7022222 C38.6133333,11.7214815 39.277037,13.0488889 39.7511111,14.6844444 C40.2251852,16.32 40.4622222,18.2992593 40.4622222,20.6222222 L40.4622222,20.6222222 L40.4622222,27.7333333 C35.437037,29.2503704 30.5066667,30.8385185 25.6711111,32.4977778 C20.8355556,34.157037 16.5096296,36.1007407 12.6933333,38.3288889 C8.87703704,40.557037 5.80740741,43.1644444 3.48444444,46.1511111 C1.16148148,49.1377778 0,52.717037 0,56.8888889 C0,59.5911111 0.497777778,62.0918519 1.49333333,64.3911111 C2.48888889,66.6903704 3.92296296,68.6814815 5.79555556,70.3644444 C7.66814815,72.0474074 9.9437037,73.362963 12.6222222,74.3111111 C15.3007407,75.2592593 18.322963,75.7333333 21.6888889,75.7333333 Z M29.1555556,63.5733333 C27.0222222,63.5733333 25.3274074,62.8859259 24.0711111,61.5111111 C22.8148148,60.1362963 22.1866667,58.24 22.1866667,55.8222222 C22.1866667,53.6414815 22.7437037,51.5911111 23.8577778,49.6711111 C24.9718519,47.7511111 26.3940741,45.997037 28.1244444,44.4088889 C29.8548148,42.8207407 31.8103704,41.3866667 33.9911111,40.1066667 C36.1718519,38.8266667 38.3288889,37.7362963 40.4622222,36.8355556 L40.4622222,36.8355556 L40.4622222,57.8133333 C38.2340741,59.52 36.242963,60.9066667 34.4888889,61.9733333 C32.7348148,63.04 30.957037,63.5733333 29.1555556,63.5733333 Z" id="a" fill="#947A08" fill-rule="nonzero"></path>
    </g>
</svg>