<?xml version="1.0" encoding="UTF-8"?>
<svg width="453px" height="52px" viewBox="0 0 453 52" version="1.1" xmlns="http://www.w3.org/2000/svg" xmlns:xlink="http://www.w3.org/1999/xlink">
    <!-- Generator: Sketch 54.1 (76490) - https://sketchapp.com -->
    <title>TITLEHERE</title>
    <desc>Created with Sketch.</desc>
    <g id="Page-1" stroke="none" stroke-width="1" fill="none" fill-rule="evenodd">
        <g id="landing" transform="translate(-103.000000, -103.000000)" fill-rule="nonzero" stroke="#000000" stroke-width="2">
            <path d="M104,104 L151,104 L151,116.346521 L135.230937,116.346521 L135.230937,154 L119.769063,154 L119.769063,116.346521 L104,116.346521 L104,104 Z M158,104 L173,104 L173,154 L158,154 L158,104 Z M180,104 L227,104 L227,116.346521 L211.230937,116.346521 L211.230937,154 L195.769063,154 L195.769063,116.346521 L180,116.346521 L180,104 Z M233,104 L248.62069,104 L248.62069,141.687585 L273,141.687585 L273,154 L233,154 L233,104 Z M280,104 L321.252427,104 L321.252427,114.675307 L295.427184,114.675307 L295.427184,122.622101 L319.383495,122.622101 L319.383495,132.819918 L295.427184,132.819918 L295.427184,142.676671 L322,142.676671 L322,154 L280,154 L280,104 Z M353,104 L368.175339,104 L368.175339,121.496589 L384.757662,121.496589 L384.757662,104 L400,104 L400,154 L384.757662,154 L384.757662,133.774898 L368.175339,133.774898 L368.175339,154 L353,154 L353,104 Z M409,104 L450.252427,104 L450.252427,114.675307 L424.427184,114.675307 L424.427184,122.622101 L448.383495,122.622101 L448.383495,132.819918 L424.427184,132.819918 L424.427184,142.676671 L451,142.676671 L451,154 L409,154 L409,104 Z M459,154 L459,104 L484.65534,104 C489.412645,104 493.048531,104.409273 495.563107,105.227831 C498.077682,106.046389 500.10517,107.564109 501.645631,109.781037 C503.186092,111.997965 503.956311,114.698029 503.956311,117.88131 C503.956311,120.655312 503.36732,123.048421 502.18932,125.060709 C501.011321,127.072998 499.391596,128.704405 497.330097,129.95498 C496.016175,130.7508 494.215222,131.410184 491.927184,131.933151 C493.762145,132.54707 495.098701,133.160979 495.936893,133.774898 C496.503239,134.184177 497.324428,135.059566 498.400485,136.401091 C499.476543,137.742617 500.195791,138.777168 500.558252,139.504775 L508,154 L490.601942,154 L482.378641,138.720327 C481.336564,136.742146 480.407771,135.457484 479.592233,134.866303 C478.482195,134.09322 477.224926,133.706685 475.820388,133.706685 L474.461165,133.706685 L474.461165,154 L459,154 Z M474,124 L480.474576,124 C481.175145,124 482.531063,123.776289 484.542373,123.328859 C485.559327,123.127516 486.389827,122.61298 487.033898,121.785235 C487.677969,120.95749 488,120.006717 488,118.932886 C488,117.344511 487.491531,116.125284 486.474576,115.275168 C485.457622,114.425052 483.548037,114 480.745763,114 L474,114 L474,124 Z M513,104 L554.252427,104 L554.252427,114.675307 L528.427184,114.675307 L528.427184,122.622101 L552.383495,122.622101 L552.383495,132.819918 L528.427184,132.819918 L528.427184,142.676671 L555,142.676671 L555,154 L513,154 L513,104 Z" id="TITLEHERE"></path>
        </g>
    </g>
</svg>